  0
SECTION
  2
HEADER
  9
$ANGBASE
  50
0.0
  9
$ANGDIR
  70
1
  9
$MEASUREMENT
  70
1
  0
ENDSEC
  0
SECTION
  2
TABLES
  0
TABLE
  2
LTYPE
  70
4
  0
LTYPE
  5
40F
  2
CONTINUOUS
  70
0
  3
Solid line
  72
65
  73
0
  40
0.0
  0
LTYPE
  5
410
  2
DASHDOT
 70
0
  3
Dash Dot ____ _ ____ _
 72
65
 73
4
 40
2.0
 49
1.25
 49
-0.25
 49
0.25
 49
-0.25
  0
LTYPE
  5
411
  2
DASHED
 70
0
  3
Dashed __ __ __ __ __
 72
65
 73
2
 40
0.75
 49
0.5
 49
-0.25
  0
LTYPE
  5
43B
  2
DOTTED
 70
0
  3
Dotted .  .  .  .
 72
65
 73
2
 40
0.2
 49
0.0
 49
-0.2
  0
ENDTAB
  0
TABLE
  2
STYLE
  70
4
  0
STYLE
  2
KICAD
  70
0
  40
0
  41
1
  42
1
  50
0
  71
0
  3
isocp.shx
  0
STYLE
  2
KICADB
  70
0
  40
0
  41
1
  42
1
  50
0
  71
0
  3
isocp.shx
  0
STYLE
  2
KICADI
  70
0
  40
0
  41
1
  42
1
  50
15
  71
0
  3
isocp.shx
  0
STYLE
  2
KICADBI
  70
0
  40
0
  41
1
  42
1
  50
15
  71
0
  3
isocp.shx
  0
ENDTAB
  0
TABLE
  2
LAYER
  70
1
  0
LAYER
  2
BLACK
  70
0
  62
7
  6
CONTINUOUS
  0
ENDTAB
  0
ENDSEC
  0
SECTION
  2
ENTITIES
0
ARC
8
BLACK
10
32.2215
20
-62.8494
40
1
50
-0.000171887
51
89.9998
0
LINE
8
BLACK
6
CONTINUOUS
10
33.2215
20
-41.8494
11
33.2215
21
-29.5994
0
ARC
8
BLACK
10
32.2215
20
-41.8494
40
0.999999
50
-90.0001
51
-0.000114592
0
ARC
8
BLACK
10
51.2215
20
-27.5994
40
1
50
-90.0002
51
-0.000171887
0
LINE
8
BLACK
6
CONTINUOUS
10
52.2215
20
-27.5994
11
52.2215
21
-27.2244
0
ARC
8
BLACK
10
153.163
20
-108.651
40
1
50
-120
51
-30
0
LINE
8
BLACK
6
CONTINUOUS
10
89.7966
20
-85.5994
11
51.2215
21
-85.5994
0
LINE
8
BLACK
6
CONTINUOUS
10
109.221
20
-15.3494
11
109.221
21
-18.0994
0
ARC
8
BLACK
10
89.7966
20
-86.589
40
0.989604
50
43.532
51
90
0
LINE
8
BLACK
6
CONTINUOUS
10
129.221
20
-21.4744
11
146.221
21
-21.4744
0
ARC
8
BLACK
10
34.2111
20
-84.6098
40
0.989605
50
180
51
270
0
LINE
8
BLACK
6
CONTINUOUS
10
148.221
20
-23.8494
11
166.779
21
-23.8494
0
ARC
8
BLACK
10
91.2215
20
-15.3494
40
1
50
90
51
180
0
LINE
8
BLACK
6
CONTINUOUS
10
72.2215
20
-19.0994
11
89.2215
21
-19.0994
0
LINE
8
BLACK
6
CONTINUOUS
10
167.779
20
-24.8494
11
167.779
21
-85.067
0
ARC
8
BLACK
10
166.779
20
-85.067
40
1
50
-30
51
-1.15676e-05
0
LINE
8
BLACK
6
CONTINUOUS
10
53.2215
20
-26.2244
11
70.2215
21
-26.2244
0
LINE
8
BLACK
6
CONTINUOUS
10
15.2215
20
-42.8494
11
32.2215
21
-42.8494
0
LINE
8
BLACK
6
CONTINUOUS
10
167.645
20
-85.567
11
154.029
21
-109.151
0
LINE
8
BLACK
6
CONTINUOUS
10
14.2215
20
-60.8494
11
14.2215
21
-43.8494
0
LINE
8
BLACK
6
CONTINUOUS
10
33.2215
20
-84.6098
11
33.2215
21
-62.8494
0
LINE
8
BLACK
6
CONTINUOUS
10
71.2215
20
-25.2244
11
71.2215
21
-20.0994
0
ARC
8
BLACK
10
127.221
20
-20.0994
40
1
50
-0
51
90
0
ARC
8
BLACK
10
148.221
20
-22.8494
40
1
50
180
51
270
0
ARC
8
BLACK
10
129.221
20
-20.4744
40
1
50
180
51
270
0
ARC
8
BLACK
10
108.221
20
-15.3494
40
1
50
-0
51
90
0
LINE
8
BLACK
6
CONTINUOUS
10
152.663
20
-109.517
11
137.245
21
-100.615
0
ARC
8
BLACK
10
15.2215
20
-43.8494
40
1
50
90.0001
51
180
0
LINE
8
BLACK
6
CONTINUOUS
10
147.221
20
-22.4744
11
147.221
21
-22.8494
0
ARC
8
BLACK
10
70.2215
20
-25.2244
40
1
50
-90
51
-0
0
LINE
8
BLACK
6
CONTINUOUS
10
51.2215
20
-85.5994
11
34.2111
21
-85.5994
0
LINE
8
BLACK
6
CONTINUOUS
10
110.221
20
-19.0994
11
127.221
21
-19.0994
0
LINE
8
BLACK
6
CONTINUOUS
10
90.2215
20
-18.0994
11
90.2215
21
-15.3494
0
LINE
8
BLACK
6
CONTINUOUS
10
128.221
20
-20.0994
11
128.221
21
-20.4744
0
LINE
8
BLACK
6
CONTINUOUS
10
32.2215
20
-61.8494
11
15.2215
21
-61.8494
0
LINE
8
BLACK
6
CONTINUOUS
10
99.4803
20
-95.3453
11
90.5141
21
-85.9074
0
ARC
8
BLACK
10
110.221
20
-18.0994
40
1
50
180
51
270
0
ARC
8
BLACK
10
34.2215
20
-29.5994
40
1
50
90
51
180
0
ARC
8
BLACK
10
53.2215
20
-27.2244
40
1
50
90
51
180
0
ARC
8
BLACK
10
166.779
20
-24.8494
40
1
50
-0
51
90
0
LINE
8
BLACK
6
CONTINUOUS
10
91.2215
20
-14.3494
11
108.221
21
-14.3494
0
ARC
8
BLACK
10
15.2215
20
-60.8494
40
0.999999
50
180
51
270
0
ARC
8
BLACK
10
136.75
20
-101.472
40
0.989604
50
59.9999
51
82.4999
0
ARC
8
BLACK
10
146.221
20
-22.4744
40
1
50
-0
51
90
0
ARC
8
BLACK
10
89.2215
20
-18.0994
40
1
50
-90
51
-0
0
LINE
8
BLACK
6
CONTINUOUS
10
34.2215
20
-28.5994
11
51.2215
21
-28.5994
0
LINE
8
BLACK
6
CONTINUOUS
10
136.879
20
-100.491
11
100.069
21
-95.6448
0
ARC
8
BLACK
10
72.2215
20
-20.0994
40
1
50
90
51
180
0
ARC
8
BLACK
10
100.198
20
-94.6637
40
0.989604
50
-136.468
51
-97.5
0
CIRCLE
8
BLACK
10
71.6215
20
-38.0744
40
1.15
0
CIRCLE
8
BLACK
10
142.508
20
-87.1992
40
1.15
0
CIRCLE
8
BLACK
10
51.8215
20
-66.5744
40
1.15
0
CIRCLE
8
BLACK
10
128.721
20
-40.3744
40
1.15
0
CIRCLE
8
BLACK
10
33.6215
20
-47.4744
40
1.15
0
CIRCLE
8
BLACK
10
97.4215
20
-75.7744
40
1.15
0
CIRCLE
8
BLACK
10
51.7215
20
-47.5744
40
1.15
0
CIRCLE
8
BLACK
10
71.7215
20
-79.7744
40
1.15
  0
ENDSEC
  0
EOF
